<?xml version="1.0" standalone="no"?>
<!DOCTYPE svg PUBLIC "-//W3C//DTD SVG 1.1//EN" "http://www.w3.org/Graphics/SVG/1.1/DTD/svg11.dtd">
<svg xmlns="http://www.w3.org/2000/svg">
<defs >
<font id="MavenPro" horiz-adv-x="563" ><font-face
    font-family="Maven Pro Medium"
    units-per-em="1000"
    panose-1="0 0 6 0 0 0 0 0 0 0"
    ascent="965"
    descent="-210"
    alphabetic="0" />
<glyph unicode=" " glyph-name="space" horiz-adv-x="284" />
<glyph unicode="!" glyph-name="exclam" horiz-adv-x="390" d="M159 175L147 667H250L238 175H159ZM147 0V94H250V0H147Z" />
<glyph unicode="&quot;" glyph-name="quotedbl" horiz-adv-x="398" d="M99 475L81 676H176L159 475H99ZM238 475L220 676H316L298 475H238Z" />
<glyph unicode="#" glyph-name="numbersign" horiz-adv-x="602" d="M132 19L151 124H72V194H162L187 341H100V410H200L219 523H290L271 410H395L415 523H487L466 410H535V341H455L429 194H507V124H418L400 19H328L346 124H222L203 19H132ZM234 194H358L384 341H259L234
194Z" />
<glyph unicode="$" glyph-name="dollar" horiz-adv-x="564" d="M512 115T468 60T336 -8V-95H246V-11Q191 -8 150 4T62 41V151Q101 119 157 100T276 80Q337 80 368 105T399 176Q399 207 381 227T336 260T260 291L238 299Q183 318 148 338T88 395T64 490Q64 533
83 572T143 640T246 676V754H336V677Q373 674 403 664T474 633V525Q423 557 386 572T298 588Q239 588 208 564T177 501Q177 468 194 448T238 415T318 385Q379 365 419 344T486 285T512 189Q512 115 468 60Z" />
<glyph unicode="%" glyph-name="percent" horiz-adv-x="805" d="M644 360T681 314T718 176Q718 84 681 38T567 -8Q490 -8 453 38T415 176Q415 193 416 200L281 -22H197L625 685H709L507 351Q533 360 567 360Q644 360 681 314ZM340 402T303 356T189 310Q112 310
75 356T37 494Q37 586 74 632T189 678Q266 678 303 632T340 494Q340 402 303 356ZM215 375T237 401T259 494Q259 562 237 588T189 614Q162 614 140 588T117 494Q117 427 139 401T189 375Q215 375 237 401ZM593 57T615 83T637 176Q637 244 615 270T567 296Q540 296
518 270T495 176Q495 109 517 83T567 57Q593 57 615 83Z" />
<glyph unicode="&amp;" glyph-name="ampersand" horiz-adv-x="659" d="M493 0L444 59Q364 -10 259 -10Q191 -10 144 18T72 90T48 178Q48 230 79 281T183 372L178 378Q114 458 114 515Q114 558 137 595T202 654T293 676Q342 676 381 656T443 601T465 523Q465 469
432 432T329 354L456 202Q469 225 476 246T491 296H576Q570 262 553 219T511 136L625 0H493ZM263 583T242 563T220 513Q220 496 239 467T280 413L281 412Q332 440 349 464T367 515Q367 545 347 564T294 583Q263 583 242 563ZM304 80T333 93T387 127L238 306Q196
277 178 245T159 185Q159 149 184 115T274 80Q304 80 333 93Z" />
<glyph unicode="&apos;" glyph-name="quotesingle" horiz-adv-x="260" d="M99 475L81 676H176L159 475H99Z" />
<glyph unicode="(" glyph-name="parenleft" horiz-adv-x="349" d="M153 -42T115 67T76 305Q76 433 114 543T202 724H299Q260 654 224 546T188 305Q188 174 224 66T299 -113H202Q153 -42 115 67Z" />
<glyph unicode=")" glyph-name="parenright" horiz-adv-x="349" d="M90 -42T126 66T162 306Q162 437 126 545T50 724H147Q196 654 235 544T274 306Q274 177 235 67T147 -113H50Q90 -42 126 66Z" />
<glyph unicode="*" glyph-name="asterisk" horiz-adv-x="412" d="M175 460L184 542L114 492L84 546L168 581L84 617L114 669L184 620L175 703H236L229 620L297 669L328 617L245 581L328 546L297 492L229 542L236 460H175Z" />
<glyph unicode="+" glyph-name="plus" horiz-adv-x="551" d="M237 121V261H96V337H237V478H313V337H453V261H313V121H237Z" />
<glyph unicode="," glyph-name="comma" horiz-adv-x="329" d="M74 -112L148 84H247L160 -112H74Z" />
<glyph unicode="-" glyph-name="hyphen" horiz-adv-x="464" d="M79 259V344H384V259H79Z" />
<glyph unicode="." glyph-name="period" horiz-adv-x="261" d="M71 0V117H190V0H71Z" />
<glyph unicode="/" glyph-name="slash" horiz-adv-x="422" d="M-14 -98L353 756H437L69 -98H-14Z" />
<glyph unicode="0" glyph-name="zero" horiz-adv-x="655" d="M189 -12T121 74T53 332Q53 676 327 676Q466 676 534 590T602 332Q602 159 535 74T327 -12Q189 -12 121 74ZM373 82T408 100T467 174T491 332Q491 479 446 530T327 582Q255 582 210 531T164 332Q164
184 209 133T327 82Q373 82 408 100Z" />
<glyph unicode="1" glyph-name="one" horiz-adv-x="459" d="M216 0V557L84 476V586L218 667H326V0H216Z" />
<glyph unicode="2" glyph-name="two" horiz-adv-x="593" d="M515 104V0H74V85Q141 130 214 197T340 338T393 473Q393 522 360 552T254 583Q167 583 80 518V622Q173 678 278 678Q391 678 447 624T504 482Q504 388 424 294T225 104H515Z" />
<glyph unicode="3" glyph-name="three" horiz-adv-x="588" d="M169 -8T77 38V140Q168 86 254 86Q330 86 371 113T412 193Q412 247 372 276T251 305H167V396H253Q314 396 346 420T379 488Q379 534 343 557T242 581Q203 581 167 572T92 544V638Q168 676 253 676Q324
676 376 653T455 588T482 495Q482 455 464 426T424 380T390 361Q407 357 436 336T489 278T513 189Q513 131 484 87T399 17T263 -8Q169 -8 77 38Z" />
<glyph unicode="4" glyph-name="four" horiz-adv-x="599" d="M346 0V191H38V285L346 667H457V282H548V191H457V0H346ZM143 282H346V531L143 282Z" />
<glyph unicode="5" glyph-name="five" horiz-adv-x="580" d="M401 430T464 380T527 214Q527 91 459 41T288 -10Q227 -10 177 3T94 37V144Q122 122 169 105T277 87Q416 87 416 209Q416 279 381 304T285 330Q230 330 200 321T141 300L84 360L122 667H480V567H201L185
415Q241 430 307 430Q401 430 464 380Z" />
<glyph unicode="6" glyph-name="six" horiz-adv-x="601" d="M427 431T486 375T546 215Q546 155 520 104T437 22T298 -10Q56 -10 56 306Q56 525 155 601T371 678Q439 678 489 660V563Q436 583 381 583Q337 583 291 564T211 496T169 368Q194 395 231 413T317 431Q427
431 486 375ZM378 86T406 128T434 217Q434 278 401 310T305 342Q257 342 222 325T168 280Q173 202 191 160T236 102T303 86Q378 86 406 128Z" />
<glyph unicode="7" glyph-name="seven" horiz-adv-x="582" d="M69 667H534V588L268 0H146L410 562H69V667Z" />
<glyph unicode="8" glyph-name="eight" horiz-adv-x="603" d="M218 -10T162 18T80 92T53 194Q53 263 91 299T168 354Q140 366 108 401T76 497Q76 578 131 628T302 678Q417 678 473 628T529 497Q529 435 500 402T439 354Q474 340 512 302T551 194Q551 139 525 93T443
18T302 -10Q218 -10 162 18ZM353 389T384 416T416 490Q416 538 383 560T302 583Q254 583 221 561T188 490Q188 443 220 416T302 389Q353 389 384 416ZM380 83T408 122T437 205Q437 255 402 284T302 313Q238 313 203 284T168 205Q168 162 196 123T302 83Q380 83
408 122Z" />
<glyph unicode="9" glyph-name="nine" horiz-adv-x="605" d="M546 678T546 362Q546 143 447 67T231 -10Q163 -10 113 8V105Q166 85 221 85Q265 85 311 104T391 172T433 300Q408 273 371 255T285 237Q175 237 116 293T56 453Q56 513 82 564T163 646T297 678Q546
678 546 362ZM344 326T379 344T434 389Q429 467 411 509T365 567T297 582Q224 582 196 540T167 451Q167 390 201 358T297 326Q344 326 379 344Z" />
<glyph unicode=":" glyph-name="colon" horiz-adv-x="401" d="M152 356V453H251V356H152ZM152 44V142H251V44H152Z" />
<glyph unicode=";" glyph-name="semicolon" horiz-adv-x="295" d="M105 336V453H224V336H105ZM39 -112L106 90H218L124 -112H39Z" />
<glyph unicode="&lt;" glyph-name="less" horiz-adv-x="662" d="M535 44L120 231V306L535 493V396L231 269L535 140V44Z" />
<glyph unicode="=" glyph-name="equal" horiz-adv-x="638" d="M126 364H513V233H126V364Z" />
<glyph unicode="&gt;" glyph-name="greater" horiz-adv-x="652" d="M127 44V140L430 269L127 396V493L541 306V231L127 44Z" />
<glyph unicode="?" glyph-name="question" horiz-adv-x="497" d="M189 213Q189 262 202 296T233 352T281 398Q310 424 324 442T338 488Q338 587 219 587Q177 587 140 574T80 541V634Q96 646 137 660T229 675Q279 675 325 657T400 596T430 487Q430 439 412 411T356
351Q331 329 316 312T291 270T280 209V175H189V213ZM183 0V94H286V0H183Z" />
<glyph unicode="@" glyph-name="at" horiz-adv-x="913" d="M336 -149T261 -115T134 -6T82 181Q82 300 145 396T308 547T510 602Q582 602 658 568T788 461T841 277Q841 209 821 152T764 62T674 29Q639 29 617 44T583 83Q539 29 441 29Q369 29 328 60T287 148Q287
205 334 249T507 293Q532 293 574 289Q575 292 575 299Q575 305 574 308Q573 341 555 360T483 379Q412 379 354 357L363 424Q433 446 485 446Q563 446 603 411T644 306Q644 278 640 248T635 212Q627 156 627 134Q627 74 680 74Q705 74 732 96T777 164T795 275Q795
364 752 427T643 523T509 556Q413 556 325 506T184 369T130 180Q130 66 183 3T301 -83T414 -105Q539 -105 630 -55L620 -109Q534 -149 409 -149Q336 -149 261 -115ZM495 98T520 115T552 155T565 226Q538 229 507 229Q357 229 357 148Q357 98 441 98Q495 98 520
115Z" />
<glyph unicode="A" glyph-name="A" horiz-adv-x="664" d="M531 0L465 181H192L127 0H17L277 667H394L647 0H531ZM225 271H432L328 557L225 271Z" />
<glyph unicode="B" glyph-name="B" horiz-adv-x="646" d="M528 339T561 298T594 194Q594 96 528 48T349 0H79V667H326Q443 667 499 620T556 486Q556 437 535 409T476 357Q528 339 561 298ZM189 389H339Q386 389 415 408T445 477Q445 530 416 552T330 574H189V389ZM409
92T445 115T481 199Q481 259 444 279T345 300H190V92H348Q409 92 445 115Z" />
<glyph unicode="C" glyph-name="C" horiz-adv-x="625" d="M48 -10T48 334Q48 678 365 678Q468 678 572 629V530Q476 586 379 586Q267 586 215 526T162 333Q162 200 215 142T382 83Q480 83 572 137V38Q526 15 472 3T365 -10Q48 -10 48 334Z" />
<glyph unicode="D" glyph-name="D" horiz-adv-x="686" d="M79 667H313Q633 667 633 334Q633 0 313 0H79V667ZM302 93Q414 93 467 151T520 334Q520 459 467 517T302 575H189V93H302Z" />
<glyph unicode="E" glyph-name="E" horiz-adv-x="586" d="M79 0V667H516V574H190V381H474V287H189V93H516V0H79Z" />
<glyph unicode="F" glyph-name="F" horiz-adv-x="552" d="M79 0V667H507V574H189V375H467V281H189V0H79Z" />
<glyph unicode="G" glyph-name="G" horiz-adv-x="695" d="M215 -12T134 74T53 334Q53 507 134 592T368 678Q487 678 591 632V526Q530 555 481 570T382 586Q271 586 218 526T164 334Q164 202 217 142T379 82Q452 82 506 102V261H366V355H616V49Q499 -12 369 -12Q215
-12 134 74Z" />
<glyph unicode="H" glyph-name="H" horiz-adv-x="687" d="M79 0V667H189V380H497V667H608V0H497V284H189V0H79Z" />
<glyph unicode="I" glyph-name="I" horiz-adv-x="269" d="M79 0V667H190V0H79Z" />
<glyph unicode="J" glyph-name="J" horiz-adv-x="464" d="M108 -10T41 26V132Q105 85 161 85Q219 85 246 113T274 207V667H385V200Q385 85 327 38T183 -10Q108 -10 41 26Z" />
<glyph unicode="K" glyph-name="K" horiz-adv-x="642" d="M475 0L251 284L190 217V0H79V667H190V343L458 667H598L327 368L620 0H475Z" />
<glyph unicode="L" glyph-name="L" horiz-adv-x="537" d="M79 0V667H190V94H509V0H79Z" />
<glyph unicode="M" glyph-name="M" horiz-adv-x="811" d="M619 667H732V0H622V509L399 201L186 507V0H79V667H194L404 357L619 667Z" />
<glyph unicode="N" glyph-name="N" horiz-adv-x="723" d="M539 667H644V0H545L184 496V0H79V667H185L539 177V667Z" />
<glyph unicode="O" glyph-name="O" horiz-adv-x="727" d="M213 -12T133 75T53 333Q53 503 132 590T363 678Q514 678 594 592T674 333Q674 163 595 76T363 -12Q213 -12 133 75ZM465 84T512 143T560 334Q560 464 512 523T363 582Q262 582 214 523T166 333Q166 202
214 143T363 84Q465 84 512 143Z" />
<glyph unicode="P" glyph-name="P" horiz-adv-x="635" d="M189 0H79V667H343Q458 667 520 614T582 456Q582 352 520 296T343 239H189V0ZM329 333Q408 333 437 365T467 452Q467 508 438 541T329 574H189V333H329Z" />
<glyph unicode="Q" glyph-name="Q" horiz-adv-x="727" d="M574 -19T611 -19Q627 -19 640 -15T673 1V-78Q638 -97 594 -97Q550 -97 513 -75T453 -6Q413 -15 363 -15Q53 -15 53 333Q53 681 363 681Q674 681 674 333Q674 110 546 30Q574 -19 611 -19ZM262 588T214
528T166 333Q166 196 213 134V180Q233 202 265 218T340 235Q392 235 433 206T503 123Q532 154 546 205T560 334Q560 468 513 528T363 588Q262 588 214 528ZM277 72T363 72Q394 74 418 78Q382 152 323 152Q272 152 231 114Q277 72 363 72Z" />
<glyph unicode="R" glyph-name="R" horiz-adv-x="665" d="M486 0L330 252H189V0H79V667H375Q480 667 535 617T591 466Q591 394 552 340T445 271L623 0H486ZM189 342H344Q410 342 442 371T475 459Q475 516 449 545T362 574H189V342Z" />
<glyph unicode="S" glyph-name="S" horiz-adv-x="564" d="M212 -12T164 0T62 41V151Q101 119 157 100T276 80Q337 80 368 105T399 176Q399 207 381 227T336 260T260 291L238 299Q183 318 148 338T88 395T64 490Q64 538 88 581T163 651T291 679Q347 679 384 669T474
633V525Q423 557 386 572T298 588Q239 588 208 564T177 501Q177 468 194 448T238 415T318 385Q379 365 419 344T486 285T512 189Q512 134 488 89T412 16T283 -12Q212 -12 164 0Z" />
<glyph unicode="T" glyph-name="T" horiz-adv-x="585" d="M237 0V574H22V667H563V574H347V0H237Z" />
<glyph unicode="U" glyph-name="U" horiz-adv-x="706" d="M223 -15T151 55T79 262V667H192V263Q192 169 233 124T356 78Q521 78 521 263V667H627V262Q627 127 556 56T360 -15Q223 -15 151 55Z" />
<glyph unicode="V" glyph-name="V" horiz-adv-x="660" d="M527 666L643 667L385 0H270L17 667H141L335 129L527 666Z" />
<glyph unicode="W" glyph-name="W" horiz-adv-x="990" d="M846 667H965L762 0H652L495 501L338 0H227L25 667H144L292 139L448 667H543L700 140L846 667Z" />
<glyph unicode="X" glyph-name="X" horiz-adv-x="628" d="M614 0H478L305 249L141 0H15L245 337L16 667H151L321 423L482 667H608L382 334L614 0Z" />
<glyph unicode="Y" glyph-name="Y" horiz-adv-x="638" d="M619 667L377 298V0H267V299L16 667H151L329 390L500 667H619Z" />
<glyph unicode="Z" glyph-name="Z" horiz-adv-x="620" d="M556 667V583L198 93H556V0H60V87L424 574H68V667H556Z" />
<glyph unicode="[" glyph-name="bracketleft" horiz-adv-x="389" d="M103 -116V696H320V600H213V-20H320V-116H103Z" />
<glyph unicode="\" glyph-name="backslash" horiz-adv-x="387" d="M331 -98L-37 756H47L414 -98H331Z" />
<glyph unicode="]" glyph-name="bracketright" horiz-adv-x="391" d="M78 -116V-20H184V600H78V696H295V-116H78Z" />
<glyph unicode="^" glyph-name="asciicircum" horiz-adv-x="569" d="M130 472L244 690H304L419 472H344L275 619L205 472H130Z" />
<glyph unicode="_" glyph-name="underscore" horiz-adv-x="546" d="M0 -85V-24H546V-85H0Z" />
<glyph unicode="`" glyph-name="grave" horiz-adv-x="237" d="M134 559L39 677H143L196 559H134Z" />
<glyph unicode="a" glyph-name="a" horiz-adv-x="562" d="M373 513T430 474T487 346V106Q487 38 427 12T256 -15Q167 -15 109 22T51 146Q51 228 98 269T233 310Q323 310 383 274V322Q383 424 260 424Q216 424 172 411T99 373V471Q127 489 180 501T291 513Q373
513 430 474ZM331 67T357 76T383 112V209Q332 231 271 231Q214 231 185 211T155 151Q155 109 188 88T268 67Q331 67 357 76Z" />
<glyph unicode="b" glyph-name="b" horiz-adv-x="583" d="M419 513T477 446T535 256Q535 108 466 47T289 -15Q74 -15 74 99V703H178V482Q207 496 243 504T307 513Q419 513 477 446ZM363 76T395 123T428 252Q428 336 394 380T291 424Q263 424 233 417T178 395V125Q178
76 281 76Q363 76 395 123Z" />
<glyph unicode="c" glyph-name="c" horiz-adv-x="496" d="M189 -10T119 51T48 248Q48 388 117 450T294 513Q375 513 448 483V389Q372 421 309 421Q230 421 191 382T152 256Q152 166 190 125T312 83Q380 83 449 116V22Q377 -10 295 -10Q189 -10 119 51Z" />
<glyph unicode="d" glyph-name="d" horiz-adv-x="586" d="M512 712V106Q512 66 479 39T396 -2T293 -15Q186 -15 117 45T48 257Q48 378 107 446T282 514Q309 514 344 507T408 486V712H512ZM408 395Q384 409 355 416T297 424Q155 424 155 255Q155 171 187 124T299
76Q345 76 376 87T408 116V395Z" />
<glyph unicode="e" glyph-name="e" horiz-adv-x="553" d="M398 514T452 439T506 227H154Q159 153 197 115T307 76Q353 76 395 87T469 117V19Q391 -15 290 -15Q177 -15 113 53T48 248Q48 377 109 445T281 514Q398 514 452 439ZM225 428T195 400T156 305H399Q392
369 363 398T278 428Q225 428 195 400Z" />
<glyph unicode="f" glyph-name="f" horiz-adv-x="383" d="M116 415H36V502H117V522Q117 638 168 676T292 714Q320 714 348 707V614Q336 620 327 623T305 626Q280 626 263 620T234 594T222 531V502H348V415H221V0H116V415Z" />
<glyph unicode="g" glyph-name="g" horiz-adv-x="579" d="M397 513T452 480T508 383V-15Q508 -101 452 -155T274 -209Q185 -209 112 -182V-86Q195 -117 266 -117Q346 -117 375 -89T404 -13V21Q375 5 341 -5T273 -15Q163 -13 106 52T48 237Q48 393 120 453T312
513Q397 513 452 480ZM155 162T189 117T290 71Q355 71 404 100V363Q404 398 378 411T306 424Q221 424 188 375T155 240Q155 162 189 117Z" />
<glyph unicode="h" glyph-name="h" horiz-adv-x="591" d="M517 513T517 311V0H412V298Q412 359 383 391T297 423Q236 423 179 390L178 0H74V714H179V472Q254 513 327 513Q517 513 517 311Z" />
<glyph unicode="i" glyph-name="i" horiz-adv-x="260" d="M74 582V677H186V582H74ZM77 0V499H182L183 0H77Z" />
<glyph unicode="j" glyph-name="j" horiz-adv-x="283" d="M98 585V680H209V585H98ZM9 -103Q61 -104 81 -83T101 -16V502H206L207 -18Q207 -193 9 -193V-103Z" />
<glyph unicode="k" glyph-name="k" horiz-adv-x="544" d="M516 0H380L178 225V0H74V692H179L178 314L361 502H490L262 284L516 0Z" />
<glyph unicode="l" glyph-name="l" horiz-adv-x="252" d="M178 0H74V692H178V0Z" />
<glyph unicode="m" glyph-name="m" horiz-adv-x="897" d="M726 513T774 469T823 332V0H718V318Q718 423 599 423Q546 423 502 396Q509 369 509 332V0H404V318Q404 423 285 423Q231 423 179 404V0H74V461Q119 484 183 498T307 513Q405 513 453 475Q534 513 621
513Q726 513 774 469Z" />
<glyph unicode="n" glyph-name="n" horiz-adv-x="586" d="M119 484T183 498T307 513Q412 513 462 469T512 332V0H407V318Q407 423 288 423Q231 423 179 404V0H74V461Q119 484 183 498Z" />
<glyph unicode="o" glyph-name="o" horiz-adv-x="578" d="M169 -15T109 53T48 251Q48 514 288 514Q409 514 470 447T531 251Q531 123 468 54T289 -15Q169 -15 109 53ZM426 74T426 251Q426 339 393 382T288 426Q215 426 184 382T152 251Q152 165 184 120T288 74Q426
74 426 251Z" />
<glyph unicode="p" glyph-name="p" horiz-adv-x="583" d="M402 514T468 450T535 242Q535 124 474 55T303 -14Q276 -14 241 -7T178 14V-201H74V405Q74 462 138 488T293 514Q402 514 468 450ZM355 75T391 118T428 244Q428 329 398 376T289 423Q239 423 209 412T178
382V104Q227 75 284 75Q355 75 391 118Z" />
<glyph unicode="q" glyph-name="q" horiz-adv-x="583" d="M509 513T509 384V-207H405V15Q377 0 344 -7T283 -14Q170 -14 109 53T48 240Q48 513 305 513Q509 513 509 384ZM155 163T192 119T298 75Q356 75 405 104V372Q405 396 375 409T304 422Q220 422 188 375T155
244Q155 163 192 119Z" />
<glyph unicode="r" glyph-name="r" horiz-adv-x="399" d="M74 456Q102 473 169 493T302 513Q342 513 370 500V416Q342 420 303 420Q237 420 179 410V0H74V456Z" />
<glyph unicode="s" glyph-name="s" horiz-adv-x="467" d="M169 -15T133 -5T54 25V124Q99 96 136 83T219 69Q262 69 286 86T311 132Q311 159 291 172T229 200L206 208Q136 225 95 257T53 357Q53 410 81 445T151 496T241 512Q289 511 322 501T394 470V380Q342 407
316 417T252 427Q211 427 186 412T161 370Q161 338 186 324T264 294Q314 280 343 267T395 225T418 144Q417 64 360 25T219 -15Q169 -15 133 -5Z" />
<glyph unicode="t" glyph-name="t" horiz-adv-x="384" d="M184 -13T145 24T106 129V415H25V502H106V642H214V502H336V415H214V150Q214 113 227 97T273 80Q289 80 306 84T336 96V3Q301 -13 253 -13Q184 -13 145 24Z" />
<glyph unicode="u" glyph-name="u" horiz-adv-x="588" d="M191 -15T133 36T74 187V502H179V202Q179 138 207 108T296 77Q356 77 384 107T413 202V502H514V187Q514 88 457 37T296 -15Q191 -15 133 36Z" />
<glyph unicode="v" glyph-name="v" horiz-adv-x="589" d="M450 502H559L347 0H242L31 502H144L303 115L450 502Z" />
<glyph unicode="w" glyph-name="w" horiz-adv-x="809" d="M671 502H779L612 0H512L404 357L297 0H198L31 502H143L255 124L361 502H448L557 122L671 502Z" />
<glyph unicode="x" glyph-name="x" horiz-adv-x="558" d="M528 502L342 253L526 0H398L271 176L143 0H29L217 250L34 502H161L288 328L413 502H528Z" />
<glyph unicode="y" glyph-name="y" d="M532 502L325 -31Q261 -194 152 -194Q113 -194 86 -182V-92Q111 -102 136 -102Q175 -102 197 -76T236 3L31 502H150L287 127L423 502H532Z" />
<glyph unicode="z" glyph-name="z" horiz-adv-x="471" d="M426 502V416L171 88H426V0H45V88L310 419H51V502H426Z" />
<glyph unicode="{" glyph-name="braceleft" horiz-adv-x="381" d="M136 -110T136 43V192Q136 222 118 237T77 259V329Q98 333 117 349T136 395V544Q136 618 179 658T313 698H328V602H316Q279 601 263 584T247 528V394Q247 329 178 294Q247 259 247 194V60Q247
21 263 4T316 -15H328V-110H313Q136 -110 136 43Z" />
<glyph unicode="|" glyph-name="bar" horiz-adv-x="457" d="M185 -99V666H275V-99H185Z" />
<glyph unicode="}" glyph-name="braceright" horiz-adv-x="376" d="M63 -15H73Q111 -13 126 3T142 60V194Q142 258 212 294Q142 330 142 394V528Q142 568 127 584T73 602H63V698H76Q167 698 210 658T253 544V395Q253 365 272 349T312 329V259Q290 253 272 238T253
192V43Q253 -110 76 -110H63V-15Z" />
<glyph unicode="~" glyph-name="asciitilde" horiz-adv-x="507" d="M98 299Q129 337 168 337Q187 337 205 330T253 309Q279 295 299 288T339 280Q378 280 409 318V249Q378 210 339 210Q320 210 302 217T254 238Q228 252 208 259T168 267Q129 267 98 229V299Z" />
<glyph unicode="&#xa0;" glyph-name="uni00A0" horiz-adv-x="284" />
<glyph unicode="&#xa1;" glyph-name="exclamdown" horiz-adv-x="383" d="M146 405V499H248V405H146ZM146 -168L158 324H237L248 -168H146Z" />
<glyph unicode="&#xa2;" glyph-name="cent" horiz-adv-x="496" d="M449 93Q389 67 332 63V0H242V65Q156 78 102 139T48 319Q48 441 101 504T242 580V652H332V582Q393 576 448 554V460Q372 492 309 492Q230 492 191 453T152 327Q152 237 190 196T312 154Q380 154
449 187V93Z" />
<glyph unicode="&#xa3;" glyph-name="sterling" horiz-adv-x="557" d="M295 581T265 553T235 481V363H416V278H235V102Q251 98 259 97Q303 87 334 82T396 76Q452 76 502 98V4Q456 -21 401 -21Q375 -21 349 -17T282 -3Q243 6 215 10T160 15Q100 15 50 -15V81Q70
92 88 96T134 104V278H50V363H134V488Q134 537 155 579T224 649T346 676Q422 676 502 633V534Q437 581 363 581Q295 581 265 553Z" />
<glyph unicode="&#xa4;" glyph-name="currency" horiz-adv-x="493" d="M431 284T401 238L448 190L394 137L346 184Q302 156 248 156Q194 156 149 185L99 137L46 190L94 240Q65 285 65 339Q65 394 94 437L46 486L99 539L147 492Q193 522 248 522Q302 522 347 493L394
539L448 486L401 439Q431 393 431 339Q431 284 401 238ZM289 235T316 264T344 339Q344 385 317 414T247 444Q205 444 178 415T150 339Q150 293 177 264T247 235Q289 235 316 264Z" />
<glyph unicode="&#xa5;" glyph-name="yen" horiz-adv-x="640" d="M272 0V128H122V200H272V288H122V360H230L18 667H142L323 390L503 667H628L416 360H524V288H374V200H524V128H374V0H272Z" />
<glyph unicode="&#xa6;" glyph-name="brokenbar" horiz-adv-x="457" d="M185 348V666H275V348H185ZM275 218V-99H185V218H275Z" />
<glyph unicode="&#xa7;" glyph-name="section" d="M147 -8T64 36V129Q133 78 234 78Q279 78 317 90T356 136Q356 160 328 178T223 216Q143 237 101 266T59 352Q59 397 90 422T164 457Q145 466 130 486T115 533Q115 597 168 636T320 676Q399 676 475 640V554Q406
591 332 591Q287 591 250 579T213 535Q213 516 236 499T328 465Q411 444 460 411T509 310Q509 272 481 248T415 214Q433 201 443 179T454 130Q454 65 399 29T244 -8Q147 -8 64 36ZM411 274T411 308Q411 331 388 348T298 382Q245 395 221 404Q157 395 157 353Q157
339 175 326T258 298Q317 283 360 263Q411 274 411 308Z" />
<glyph unicode="&#xa8;" glyph-name="dieresis" horiz-adv-x="404" d="M70 562V650H171V562H70ZM234 562V650H334V562H234Z" />
<glyph unicode="&#xa9;" glyph-name="copyright" horiz-adv-x="778" d="M298 -8T219 38T94 162T48 333Q48 426 94 504T218 629T390 675Q483 675 561 629T686 505T732 333Q732 241 686 163T562 38T390 -8Q298 -8 219 38ZM471 35T539 75T648 184T688 333Q688 414
648 482T540 591T390 632Q309 632 241 592T132 483T92 333Q92 253 132 185T240 76T390 35Q471 35 539 75ZM311 134T264 182T216 333Q216 436 263 484T397 533Q458 533 518 510V455Q464 479 402 479Q338 479 307 445T276 333Q276 256 307 222T402 187Q462 187 518
212V158Q460 134 397 134Q311 134 264 182Z" />
<glyph unicode="&#xaa;" glyph-name="ordfeminine" horiz-adv-x="398" d="M145 386T109 406T73 477Q73 524 101 545T183 566Q209 566 229 562T254 555Q254 625 188 625Q145 625 100 608V657Q146 675 191 675Q314 675 314 558V475Q314 386 193 386Q145 386 109
406ZM254 432T254 474V516Q248 518 233 521T200 525Q173 525 153 515T133 478Q133 453 150 443T194 432Q254 432 254 474Z" />
<glyph unicode="&#xab;" glyph-name="guillemotleft" horiz-adv-x="585" d="M201 64L32 255L201 445H318L139 255L318 64H201ZM407 64L238 255L407 445H524L345 255L524 64H407Z" />
<glyph unicode="&#xac;" glyph-name="logicalnot" horiz-adv-x="626" d="M452 154V249H97V327H529V154H452Z" />
<glyph unicode="&#xad;" glyph-name="uni00AD" horiz-adv-x="600" d="M79 259V344H384V259H79Z" />
<glyph unicode="&#xae;" glyph-name="registered" horiz-adv-x="778" d="M298 -8T219 38T94 162T48 333Q48 426 94 504T218 629T390 675Q483 675 561 629T686 505T732 333Q732 241 686 163T562 38T390 -8Q298 -8 219 38ZM471 35T539 75T648 184T688 333Q688 414
648 483T540 592T390 632Q309 632 241 592T132 483T92 333Q92 253 132 185T240 76T390 35Q471 35 539 75ZM259 528H405Q471 528 508 498T546 411Q546 358 519 332T459 297L562 138H493L401 288H319V138H259V528ZM406 339Q451 339 468 357T485 407Q485 476 406 476H319V339H406Z"
/>
<glyph unicode="&#xaf;" glyph-name="overscore" horiz-adv-x="400" d="M75 566V637H327V566H75Z" />
<glyph unicode="&#xb0;" glyph-name="degree" horiz-adv-x="387" d="M138 447T110 475T82 558Q82 612 110 640T191 669Q244 669 272 641T300 558Q300 504 272 476T191 447Q138 447 110 475ZM225 490T240 506T256 558Q256 594 241 610T191 626Q157 626 142 610T126
558Q126 522 141 506T191 490Q225 490 240 506Z" />
<glyph unicode="&#xb1;" glyph-name="plusminus" horiz-adv-x="585" d="M255 152V294H114V369H255V510H331V369H471V294H331V152H255ZM114 25V98H471V25H114Z" />
<glyph unicode="&#xb2;" glyph-name="two.superior" horiz-adv-x="331" d="M288 538V463H50V508Q109 551 153 602T198 703Q198 726 181 740T138 755Q98 755 53 723V796Q102 826 155 826Q221 826 252 796T284 722Q284 675 250 626T165 538H288Z" />
<glyph unicode="&#xb3;" glyph-name="three.superior" horiz-adv-x="327" d="M103 458T49 483V553Q72 540 93 533T138 525Q166 525 184 538T203 576Q203 598 185 610T137 623H98V682H138Q158 682 171 692T185 725Q185 739 170 748T132 758Q94 758 58 739V805Q98
826 144 826Q202 826 236 799T271 729Q271 707 262 691T240 667T222 657Q250 643 269 623T288 564Q288 517 250 488T149 458Q103 458 49 483Z" />
<glyph unicode="&#xb4;" glyph-name="acute" horiz-adv-x="247" d="M61 559L113 677H218L123 559H61Z" />
<glyph unicode="&#xb5;" glyph-name="uni00B5" horiz-adv-x="620" d="M99 499H201V176Q201 135 224 109T319 82Q374 82 426 97V499H528V45Q497 29 438 11T307 -8Q258 -8 231 6T201 22V-210H99V499Z" />
<glyph unicode="&#xb6;" glyph-name="paragraph" horiz-adv-x="470" d="M316 234H281Q163 234 101 289T38 451Q38 555 100 611T281 667H402V0H316V234Z" />
<glyph unicode="&#xb7;" glyph-name="middot" horiz-adv-x="326" d="M113 224V321H211V224H113Z" />
<glyph unicode="&#xb8;" glyph-name="cedilla" horiz-adv-x="263" d="M52 -126L137 -5H211L153 -126H52Z" />
<glyph unicode="&#xb9;" glyph-name="one.superior" horiz-adv-x="239" d="M111 822H173V463H89V721L42 692V778L111 822Z" />
<glyph unicode="&#xba;" glyph-name="ordmasculine" horiz-adv-x="419" d="M150 389T113 422T75 532Q75 609 112 642T207 676Q264 676 301 643T338 532Q338 455 301 422T207 389Q150 389 113 422ZM246 436T263 459T281 532Q281 583 264 606T207 629Q168 629 150
606T132 532Q132 482 150 459T207 436Q246 436 263 459Z" />
<glyph unicode="&#xbb;" glyph-name="guillemotright" horiz-adv-x="588" d="M63 64L241 255L63 445H179L349 255L179 64H63ZM268 64L447 255L268 445H385L555 255L385 64H268Z" />
<glyph unicode="&#xbc;" glyph-name="onequarter" horiz-adv-x="737" d="M111 673H173V314H89V572L42 543V629L111 673ZM65 -22L493 685H577L149 -22H65ZM638 153H687V87H638V1H557V87H409V154L576 360H638V153ZM483 153H557V244L483 153Z" />
<glyph unicode="&#xbd;" glyph-name="onehalf" horiz-adv-x="707" d="M111 673H173V314H89V572L42 543V629L111 673ZM60 -22L488 685H572L144 -22H60ZM657 76V1H419V46Q478 89 522 140T567 241Q567 264 550 278T507 293Q467 293 422 261V334Q471 364 524 364Q590
364 621 334T653 260Q653 213 619 164T534 76H657Z" />
<glyph unicode="&#xbe;" glyph-name="threequarters" horiz-adv-x="765" d="M103 314T49 339V409Q72 396 93 389T138 381Q166 381 184 394T203 432Q203 454 185 466T137 479H98V538H138Q158 538 171 548T185 581Q185 595 170 604T132 614Q94 614 58 595V661Q98
682 144 682Q202 682 236 655T271 585Q271 563 262 547T240 523T222 513Q250 499 269 479T288 420Q288 373 250 344T149 314Q103 314 49 339ZM131 -22L559 685H643L215 -22H131ZM666 153H715V87H666V1H585V87H437V154L604 360H666V153ZM511 153H585V244L511 153Z"
/>
<glyph unicode="&#xbf;" glyph-name="questiondown" horiz-adv-x="496" d="M218 405V499H321V405H218ZM225 -176T180 -158T104 -97T74 12Q74 60 92 88T148 148Q173 170 188 187T213 229T224 290V325H315V286Q315 237 302 203T270 147T223 102Q193 76 180 58T166
12Q166 -39 197 -63T286 -88Q326 -88 363 -75T425 -42V-135Q409 -147 368 -161T275 -176Q225 -176 180 -158Z" />
<glyph unicode="&#xc0;" glyph-name="Agrave" horiz-adv-x="664" d="M531 0L465 181H192L127 0H17L277 667H394L647 0H531ZM225 271H432L328 557L225 271ZM307 719L218 833H317L369 719H307Z" />
<glyph unicode="&#xc1;" glyph-name="Aacute" horiz-adv-x="664" d="M531 0L465 181H192L127 0H17L277 667H394L647 0H531ZM225 271H432L328 557L225 271ZM306 727L354 841H463L365 727H306Z" />
<glyph unicode="&#xc2;" glyph-name="Acircumflex" horiz-adv-x="664" d="M531 0L465 181H192L127 0H17L277 667H394L647 0H531ZM225 271H432L328 557L225 271ZM206 715L290 836H377L460 715H391L333 780L275 715H206Z" />
<glyph unicode="&#xc3;" glyph-name="Atilde" horiz-adv-x="664" d="M531 0L465 181H192L127 0H17L277 667H394L647 0H531ZM225 271H432L328 557L225 271ZM180 723Q178 739 178 747Q178 791 205 819T270 848Q294 848 313 839T357 811Q376 797 387 791T412 784Q426
784 434 794T442 823Q442 832 441 837H501Q502 831 502 820Q502 775 475 747T405 718Q378 718 357 728T313 757Q296 770 287 775T267 781Q253 781 244 770T235 738Q235 728 236 723H180Z" />
<glyph unicode="&#xc4;" glyph-name="Adieresis" horiz-adv-x="664" d="M531 0L465 181H192L127 0H17L277 667H394L647 0H531ZM225 271H432L328 557L225 271ZM199 717V805H300V717H199ZM363 717V805H463V717H363Z" />
<glyph unicode="&#xc5;" glyph-name="Aring" horiz-adv-x="664" d="M465 181H192L127 0H17L274 660Q223 679 223 744Q223 791 249 814T332 837Q441 837 441 744Q441 685 396 662L647 0H531L465 181ZM302 787T291 778T280 744Q280 720 291 711T332 701Q361 701
372 710T383 744Q383 768 372 777T332 787Q302 787 291 778ZM225 271H432L328 557L225 271Z" />
<glyph unicode="&#xc6;" glyph-name="AE" horiz-adv-x="988" d="M917 574H602V382H877V288H602V94H917V0H491V182H263L142 0H17L477 667H917V574ZM324 274H491V525L324 274Z" />
<glyph unicode="&#xc7;" glyph-name="Ccedilla" horiz-adv-x="625" d="M267 586T215 526T162 333Q162 200 215 142T382 83Q480 83 572 137V38Q527 16 475 4T372 -10L322 -115H221L298 -6Q48 29 48 334Q48 678 365 678Q468 678 572 629V530Q476 586 379 586Q267
586 215 526Z" />
<glyph unicode="&#xc8;" glyph-name="Egrave" horiz-adv-x="586" d="M79 0V667H516V574H190V381H474V287H189V93H516V0H79ZM280 719L191 833H290L342 719H280Z" />
<glyph unicode="&#xc9;" glyph-name="Eacute" horiz-adv-x="586" d="M79 0V667H516V574H190V381H474V287H189V93H516V0H79ZM279 727L327 841H436L338 727H279Z" />
<glyph unicode="&#xca;" glyph-name="Ecircumflex" horiz-adv-x="586" d="M79 0V667H516V574H190V381H474V287H189V93H516V0H79ZM179 715L263 836H350L433 715H364L306 780L248 715H179Z" />
<glyph unicode="&#xcb;" glyph-name="Edieresis" horiz-adv-x="586" d="M79 0V667H516V574H190V381H474V287H189V93H516V0H79ZM172 717V805H273V717H172ZM336 717V805H436V717H336Z" />
<glyph unicode="&#xcc;" glyph-name="Igrave" horiz-adv-x="269" d="M79 0V667H190V0H79ZM111 719L22 833H121L173 719H111Z" />
<glyph unicode="&#xcd;" glyph-name="Iacute" horiz-adv-x="269" d="M79 0V667H190V0H79ZM110 727L158 841H267L169 727H110Z" />
<glyph unicode="&#xce;" glyph-name="Icircumflex" horiz-adv-x="269" d="M79 0V667H190V0H79ZM10 715L94 836H181L264 715H195L137 780L79 715H10Z" />
<glyph unicode="&#xcf;" glyph-name="Idieresis" horiz-adv-x="269" d="M79 0V667H190V0H79ZM3 717V805H104V717H3ZM167 717V805H267V717H167Z" />
<glyph unicode="&#xd0;" glyph-name="Eth" horiz-adv-x="686" d="M633 667T633 334Q633 0 313 0H79V299H7V369H79V667H313Q633 667 633 334ZM414 93T467 151T520 334Q520 459 467 517T302 575H189V369H275V299H189V93H302Q414 93 467 151Z" />
<glyph unicode="&#xd1;" glyph-name="Ntilde" horiz-adv-x="723" d="M539 667H644V0H545L184 496V0H79V667H185L539 177V667ZM209 723Q207 739 207 747Q207 791 234 819T299 848Q323 848 342 839T386 811Q405 797 416 791T441 784Q455 784 463 794T471 823Q471
832 470 837H530Q531 831 531 820Q531 775 504 747T434 718Q407 718 386 728T342 757Q325 770 316 775T296 781Q282 781 273 770T264 738Q264 728 265 723H209Z" />
<glyph unicode="&#xd2;" glyph-name="Ograve" horiz-adv-x="727" d="M213 -12T133 75T53 333Q53 503 132 590T363 678Q514 678 594 592T674 333Q674 163 595 76T363 -12Q213 -12 133 75ZM465 84T512 143T560 334Q560 464 512 523T363 582Q262 582 214 523T166
333Q166 202 214 143T363 84Q465 84 512 143ZM343 728L254 842H353L405 728H343Z" />
<glyph unicode="&#xd3;" glyph-name="Oacute" horiz-adv-x="727" d="M213 -12T133 75T53 333Q53 503 132 590T363 678Q514 678 594 592T674 333Q674 163 595 76T363 -12Q213 -12 133 75ZM465 84T512 143T560 334Q560 464 512 523T363 582Q262 582 214 523T166
333Q166 202 214 143T363 84Q465 84 512 143ZM342 736L390 850H499L401 736H342Z" />
<glyph unicode="&#xd4;" glyph-name="Ocircumflex" horiz-adv-x="727" d="M213 -12T133 75T53 333Q53 503 132 590T363 678Q514 678 594 592T674 333Q674 163 595 76T363 -12Q213 -12 133 75ZM465 84T512 143T560 334Q560 464 512 523T363 582Q262 582 214 523T166
333Q166 202 214 143T363 84Q465 84 512 143ZM242 724L326 845H413L496 724H427L369 789L311 724H242Z" />
<glyph unicode="&#xd5;" glyph-name="Otilde" horiz-adv-x="727" d="M213 -12T133 75T53 333Q53 503 132 590T363 678Q514 678 594 592T674 333Q674 163 595 76T363 -12Q213 -12 133 75ZM465 84T512 143T560 334Q560 464 512 523T363 582Q262 582 214 523T166
333Q166 202 214 143T363 84Q465 84 512 143ZM216 732Q214 748 214 756Q214 800 241 828T306 857Q330 857 349 848T393 820Q412 806 423 800T448 793Q462 793 470 803T478 832Q478 841 477 846H537Q538 840 538 829Q538 784 511 756T441 727Q414 727 393 737T349
766Q332 779 323 784T303 790Q289 790 280 779T271 747Q271 737 272 732H216Z" />
<glyph unicode="&#xd6;" glyph-name="Odieresis" horiz-adv-x="727" d="M213 -12T133 75T53 333Q53 503 132 590T363 678Q514 678 594 592T674 333Q674 163 595 76T363 -12Q213 -12 133 75ZM465 84T512 143T560 334Q560 464 512 523T363 582Q262 582 214 523T166
333Q166 202 214 143T363 84Q465 84 512 143ZM235 726V814H336V726H235ZM399 726V814H499V726H399Z" />
<glyph unicode="&#xd7;" glyph-name="multiply" horiz-adv-x="497" d="M76 77L211 256L76 435H154L250 308L347 435H425L290 256L425 77H347L250 204L154 77H76Z" />
<glyph unicode="&#xd8;" glyph-name="Oslash" horiz-adv-x="727" d="M613 567Q674 482 674 333Q674 163 595 76T363 -12Q240 -12 165 45L126 0H43L120 90Q53 177 53 333Q53 503 132 590T363 678Q493 678 570 614L615 667H699L613 567ZM166 233T194 176L502 535Q454
582 363 582Q262 582 214 523T166 333Q166 233 194 176ZM560 425T538 479L233 124Q279 84 363 84Q465 84 512 143T560 334Q560 425 538 479Z" />
<glyph unicode="&#xd9;" glyph-name="Ugrave" horiz-adv-x="706" d="M223 -15T151 55T79 262V667H192V263Q192 169 233 124T356 78Q521 78 521 263V667H627V262Q627 127 556 56T360 -15Q223 -15 151 55ZM327 722L238 836H337L389 722H327Z" />
<glyph unicode="&#xda;" glyph-name="Uacute" horiz-adv-x="706" d="M223 -15T151 55T79 262V667H192V263Q192 169 233 124T356 78Q521 78 521 263V667H627V262Q627 127 556 56T360 -15Q223 -15 151 55ZM326 730L374 844H483L385 730H326Z" />
<glyph unicode="&#xdb;" glyph-name="Ucircumflex" horiz-adv-x="706" d="M223 -15T151 55T79 262V667H192V263Q192 169 233 124T356 78Q521 78 521 263V667H627V262Q627 127 556 56T360 -15Q223 -15 151 55ZM226 718L310 839H397L480 718H411L353 783L295 718H226Z" />
<glyph unicode="&#xdc;" glyph-name="Udieresis" horiz-adv-x="706" d="M223 -15T151 55T79 262V667H192V263Q192 169 233 124T356 78Q521 78 521 263V667H627V262Q627 127 556 56T360 -15Q223 -15 151 55ZM219 720V808H320V720H219ZM383 720V808H483V720H383Z" />
<glyph unicode="&#xdd;" glyph-name="Yacute" horiz-adv-x="638" d="M619 667L377 298V0H267V299L16 667H151L329 390L500 667H619ZM306 727L354 841H463L365 727H306Z" />
<glyph unicode="&#xde;" glyph-name="Thorn" horiz-adv-x="595" d="M86 667H188V567H305Q419 567 480 511T542 352Q542 249 481 193T305 137H188V0H86V667ZM293 228Q379 228 410 263T441 352Q441 406 410 441T293 476H188V228H293Z" />
<glyph unicode="&#xdf;" glyph-name="germandbls" horiz-adv-x="606" d="M74 429Q74 543 130 614T297 685Q400 685 464 642T528 526Q528 467 496 428T424 376Q455 366 486 342T538 276T559 179Q559 126 537 82T469 12T357 -14Q316 -14 260 0V94Q308 72 349 72Q398
72 425 101T452 184Q452 225 431 255T377 300T307 316V403Q364 403 392 430T420 505Q420 550 387 573T302 596Q240 596 210 554T179 434V0H74V429Z" />
<glyph unicode="&#xe0;" glyph-name="agrave" horiz-adv-x="562" d="M373 513T430 474T487 346V106Q487 38 427 12T256 -15Q167 -15 109 22T51 146Q51 228 98 269T233 310Q323 310 383 274V322Q383 424 260 424Q216 424 172 411T99 373V471Q127 489 180 501T291
513Q373 513 430 474ZM331 67T357 76T383 112V209Q332 231 271 231Q214 231 185 211T155 151Q155 109 188 88T268 67Q331 67 357 76ZM259 568L164 686H268L321 568H259Z" />
<glyph unicode="&#xe1;" glyph-name="aacute" horiz-adv-x="562" d="M373 513T430 474T487 346V106Q487 38 427 12T256 -15Q167 -15 109 22T51 146Q51 228 98 269T233 310Q323 310 383 274V322Q383 424 260 424Q216 424 172 411T99 373V471Q127 489 180 501T291
513Q373 513 430 474ZM331 67T357 76T383 112V209Q332 231 271 231Q214 231 185 211T155 151Q155 109 188 88T268 67Q331 67 357 76ZM253 568L305 686H410L315 568H253Z" />
<glyph unicode="&#xe2;" glyph-name="acircumflex" horiz-adv-x="562" d="M373 513T430 474T487 346V106Q487 38 427 12T256 -15Q167 -15 109 22T51 146Q51 228 98 269T233 310Q323 310 383 274V322Q383 424 260 424Q216 424 172 411T99 373V471Q127 489 180 501T291
513Q373 513 430 474ZM331 67T357 76T383 112V209Q332 231 271 231Q214 231 185 211T155 151Q155 109 188 88T268 67Q331 67 357 76ZM164 570L248 691H335L418 570H349L291 635L233 570H164Z" />
<glyph unicode="&#xe3;" glyph-name="atilde" horiz-adv-x="562" d="M373 513T430 474T487 346V106Q487 38 427 12T256 -15Q167 -15 109 22T51 146Q51 228 98 269T233 310Q323 310 383 274V322Q383 424 260 424Q216 424 172 411T99 373V471Q127 489 180 501T291
513Q373 513 430 474ZM331 67T357 76T383 112V209Q332 231 271 231Q214 231 185 211T155 151Q155 109 188 88T268 67Q331 67 357 76ZM131 553Q129 569 129 577Q129 621 156 649T221 678Q245 678 264 669T308 641Q327 627 338 621T363 614Q377 614 385 624T393 653Q393
662 392 667H452Q453 661 453 650Q453 605 426 577T356 548Q329 548 308 558T264 587Q247 600 238 605T218 611Q204 611 195 600T186 568Q186 558 187 553H131Z" />
<glyph unicode="&#xe4;" glyph-name="adieresis" horiz-adv-x="562" d="M373 513T430 474T487 346V106Q487 38 427 12T256 -15Q167 -15 109 22T51 146Q51 228 98 269T233 310Q323 310 383 274V322Q383 424 260 424Q216 424 172 411T99 373V471Q127 489 180 501T291
513Q373 513 430 474ZM331 67T357 76T383 112V209Q332 231 271 231Q214 231 185 211T155 151Q155 109 188 88T268 67Q331 67 357 76ZM159 571V659H260V571H159ZM323 571V659H423V571H323Z" />
<glyph unicode="&#xe5;" glyph-name="aring" horiz-adv-x="562" d="M373 513T430 474T487 346V106Q487 38 427 12T256 -15Q167 -15 109 22T51 146Q51 228 98 269T233 310Q323 310 383 274V322Q383 424 260 424Q216 424 172 411T99 373V471Q127 489 180 501T291
513Q373 513 430 474ZM331 67T357 76T383 112V209Q332 231 271 231Q214 231 185 211T155 151Q155 109 188 88T268 67Q331 67 357 76ZM232 544T206 567T179 637Q179 684 205 707T288 730Q397 730 397 637Q397 544 288 544Q232 544 206 567ZM317 594T328 603T339
637Q339 661 328 670T288 680Q258 680 247 671T236 637Q236 613 247 604T288 594Q317 594 328 603Z" />
<glyph unicode="&#xe6;" glyph-name="ae" horiz-adv-x="889" d="M734 513T788 438T841 227H487Q487 151 526 112T642 73Q689 73 730 85T803 117V19Q729 -18 624 -18Q568 -18 523 -1T446 48Q359 -18 259 -18Q163 -18 107 20T51 143Q51 227 105 268T252 310Q288
310 322 302T383 278V321Q383 423 260 423Q217 423 173 410T99 373V471Q127 489 180 501T291 513Q340 513 382 499T452 453Q511 513 616 513Q734 513 788 438ZM559 427T529 399T490 305H734Q728 368 699 397T613 427Q559 427 529 399ZM309 64T346 74T407 105Q386
148 383 209Q328 231 271 231Q155 231 155 145Q155 105 188 85T270 64Q309 64 346 74Z" />
<glyph unicode="&#xe7;" glyph-name="ccedilla" horiz-adv-x="496" d="M449 22Q393 -3 328 -9L272 -126H171L254 -8Q163 3 106 64T48 248Q48 388 117 450T294 513Q375 513 448 483V389Q372 421 309 421Q230 421 191 382T152 256Q152 166 190 125T312 83Q380 83
449 116V22Z" />
<glyph unicode="&#xe8;" glyph-name="egrave" horiz-adv-x="553" d="M398 514T452 439T506 227H154Q159 153 197 115T307 76Q353 76 395 87T469 117V19Q391 -15 290 -15Q177 -15 113 53T48 248Q48 377 109 445T281 514Q398 514 452 439ZM225 428T195 400T156 305H399Q392
369 363 398T278 428Q225 428 195 400ZM256 565L161 683H265L318 565H256Z" />
<glyph unicode="&#xe9;" glyph-name="eacute" horiz-adv-x="553" d="M398 514T452 439T506 227H154Q159 153 197 115T307 76Q353 76 395 87T469 117V19Q391 -15 290 -15Q177 -15 113 53T48 248Q48 377 109 445T281 514Q398 514 452 439ZM225 428T195 400T156 305H399Q392
369 363 398T278 428Q225 428 195 400ZM250 565L302 683H407L312 565H250Z" />
<glyph unicode="&#xea;" glyph-name="ecircumflex" horiz-adv-x="553" d="M398 514T452 439T506 227H154Q159 153 197 115T307 76Q353 76 395 87T469 117V19Q391 -15 290 -15Q177 -15 113 53T48 248Q48 377 109 445T281 514Q398 514 452 439ZM225 428T195 400T156
305H399Q392 369 363 398T278 428Q225 428 195 400ZM161 567L245 688H332L415 567H346L288 632L230 567H161Z" />
<glyph unicode="&#xeb;" glyph-name="edieresis" horiz-adv-x="553" d="M398 514T452 439T506 227H154Q159 153 197 115T307 76Q353 76 395 87T469 117V19Q391 -15 290 -15Q177 -15 113 53T48 248Q48 377 109 445T281 514Q398 514 452 439ZM225 428T195 400T156
305H399Q392 369 363 398T278 428Q225 428 195 400ZM156 568V656H257V568H156ZM320 568V656H420V568H320Z" />
<glyph unicode="&#xec;" glyph-name="igrave" horiz-adv-x="297" d="M119 564L33 679H120L179 564H119ZM98 0V499H200V0H98Z" />
<glyph unicode="&#xed;" glyph-name="iacute" horiz-adv-x="297" d="M120 562L178 677H264L178 562H120ZM98 0V499H200V0H98Z" />
<glyph unicode="&#xee;" glyph-name="icircumflex" horiz-adv-x="297" d="M35 562L127 682H170L263 562H193L149 624L104 562H35ZM98 0V499H200V0H98Z" />
<glyph unicode="&#xef;" glyph-name="idieresis" horiz-adv-x="297" d="M26 562V650H117V562H26ZM180 562V650H272V562H180ZM98 0V499H200V0H98Z" />
<glyph unicode="&#xf0;" glyph-name="eth" horiz-adv-x="574" d="M523 445T523 282Q523 137 464 60T289 -18Q168 -18 108 49T48 249Q48 378 104 445T266 513Q328 513 372 483Q345 529 310 569L182 547L168 615L249 629Q210 661 172 688V692H314Q339 672 363 648L471
666L485 600L415 588Q523 445 523 282ZM331 71T360 89T405 156T422 289Q422 341 410 386Q387 408 356 420T288 433Q152 433 152 249Q152 161 184 116T288 71Q331 71 360 89Z" />
<glyph unicode="&#xf1;" glyph-name="ntilde" horiz-adv-x="586" d="M119 484T183 498T307 513Q412 513 462 469T512 332V0H407V318Q407 423 288 423Q231 423 179 404V0H74V461Q119 484 183 498ZM137 550Q135 566 135 574Q135 618 162 646T227 675Q251 675 270
666T314 638Q333 624 344 618T369 611Q383 611 391 621T399 650Q399 659 398 664H458Q459 658 459 647Q459 602 432 574T362 545Q335 545 314 555T270 584Q253 597 244 602T224 608Q210 608 201 597T192 565Q192 555 193 550H137Z" />
<glyph unicode="&#xf2;" glyph-name="ograve" horiz-adv-x="578" d="M169 -15T109 53T48 251Q48 514 288 514Q409 514 470 447T531 251Q531 123 468 54T289 -15Q169 -15 109 53ZM426 74T426 251Q426 339 393 382T288 426Q215 426 184 382T152 251Q152 165 184
120T288 74Q426 74 426 251ZM262 568L167 686H271L324 568H262Z" />
<glyph unicode="&#xf3;" glyph-name="oacute" horiz-adv-x="578" d="M169 -15T109 53T48 251Q48 514 288 514Q409 514 470 447T531 251Q531 123 468 54T289 -15Q169 -15 109 53ZM426 74T426 251Q426 339 393 382T288 426Q215 426 184 382T152 251Q152 165 184
120T288 74Q426 74 426 251ZM256 568L308 686H413L318 568H256Z" />
<glyph unicode="&#xf4;" glyph-name="ocircumflex" horiz-adv-x="578" d="M169 -15T109 53T48 251Q48 514 288 514Q409 514 470 447T531 251Q531 123 468 54T289 -15Q169 -15 109 53ZM426 74T426 251Q426 339 393 382T288 426Q215 426 184 382T152 251Q152 165
184 120T288 74Q426 74 426 251ZM167 570L251 691H338L421 570H352L294 635L236 570H167Z" />
<glyph unicode="&#xf5;" glyph-name="otilde" horiz-adv-x="578" d="M169 -15T109 53T48 251Q48 514 288 514Q409 514 470 447T531 251Q531 123 468 54T289 -15Q169 -15 109 53ZM426 74T426 251Q426 339 393 382T288 426Q215 426 184 382T152 251Q152 165 184
120T288 74Q426 74 426 251ZM134 553Q132 569 132 577Q132 621 159 649T224 678Q248 678 267 669T311 641Q330 627 341 621T366 614Q380 614 388 624T396 653Q396 662 395 667H455Q456 661 456 650Q456 605 429 577T359 548Q332 548 311 558T267 587Q250 600 241
605T221 611Q207 611 198 600T189 568Q189 558 190 553H134Z" />
<glyph unicode="&#xf6;" glyph-name="odieresis" horiz-adv-x="578" d="M169 -15T109 53T48 251Q48 514 288 514Q409 514 470 447T531 251Q531 123 468 54T289 -15Q169 -15 109 53ZM426 74T426 251Q426 339 393 382T288 426Q215 426 184 382T152 251Q152 165 184
120T288 74Q426 74 426 251ZM162 571V659H263V571H162ZM326 571V659H426V571H326Z" />
<glyph unicode="&#xf7;" glyph-name="divide" horiz-adv-x="628" d="M268 366V457H361V366H268ZM105 220V296H524V220H105ZM268 59V150H361V59H268Z" />
<glyph unicode="&#xf8;" glyph-name="oslash" horiz-adv-x="586" d="M489 422Q531 356 531 251Q531 123 468 54T289 -15Q204 -15 149 20L132 0H29L92 74Q48 141 48 251Q48 514 288 514Q375 514 434 477L452 499H555L489 422ZM152 198T164 160L371 404Q338 426
288 426Q215 426 184 382T152 251Q152 198 164 160ZM426 302T416 335L211 94Q242 74 288 74Q426 74 426 251Q426 302 416 335Z" />
<glyph unicode="&#xf9;" glyph-name="ugrave" horiz-adv-x="588" d="M191 -15T133 36T74 187V502H179V202Q179 138 207 108T296 77Q356 77 384 107T413 202V502H514V187Q514 88 457 37T296 -15Q191 -15 133 36ZM268 565L173 683H277L330 565H268Z" />
<glyph unicode="&#xfa;" glyph-name="uacute" horiz-adv-x="588" d="M191 -15T133 36T74 187V502H179V202Q179 138 207 108T296 77Q356 77 384 107T413 202V502H514V187Q514 88 457 37T296 -15Q191 -15 133 36ZM262 565L314 683H419L324 565H262Z" />
<glyph unicode="&#xfb;" glyph-name="ucircumflex" horiz-adv-x="588" d="M191 -15T133 36T74 187V502H179V202Q179 138 207 108T296 77Q356 77 384 107T413 202V502H514V187Q514 88 457 37T296 -15Q191 -15 133 36ZM173 567L257 688H344L427 567H358L300 632L242
567H173Z" />
<glyph unicode="&#xfc;" glyph-name="udieresis" horiz-adv-x="588" d="M191 -15T133 36T74 187V502H179V202Q179 138 207 108T296 77Q356 77 384 107T413 202V502H514V187Q514 88 457 37T296 -15Q191 -15 133 36ZM168 568V656H269V568H168ZM332 568V656H432V568H332Z" />
<glyph unicode="&#xfd;" glyph-name="yacute" d="M532 502L325 -31Q261 -194 152 -194Q113 -194 86 -182V-92Q111 -102 136 -102Q175 -102 197 -76T236 3L31 502H150L287 127L423 502H532ZM250 559L302 677H407L312 559H250Z" />
<glyph unicode="&#xfe;" glyph-name="thorn" horiz-adv-x="580" d="M401 507T467 443T533 236Q533 120 472 52T301 -17Q275 -17 241 -10T178 10V-193H74V692H178V494Q233 507 293 507Q401 507 467 443ZM354 72T389 115T425 238Q425 322 396 369T290 416Q248 416
216 407T178 380V101Q229 72 285 72Q354 72 389 115Z" />
<glyph unicode="&#xff;" glyph-name="ydieresis" d="M532 502L325 -31Q261 -194 152 -194Q113 -194 86 -182V-92Q111 -102 136 -102Q175 -102 197 -76T236 3L31 502H150L287 127L423 502H532ZM156 562V650H257V562H156ZM320 562V650H420V562H320Z" />
<glyph unicode="&#x2013;" glyph-name="endash" horiz-adv-x="560" d="M69 250V329H489V250H69Z" />
<glyph unicode="&#x2014;" glyph-name="emdash" horiz-adv-x="891" d="M79 250V332H812V250H79Z" />
<glyph unicode="&#x2018;" glyph-name="quoteleft" horiz-adv-x="269" d="M135 480L47 676H146L220 480H135Z" />
<glyph unicode="&#x2019;" glyph-name="quoteright" horiz-adv-x="269" d="M47 480L121 676H220L133 480H47Z" />
<glyph unicode="&#x201a;" glyph-name="quotesinglbase" horiz-adv-x="312" d="M72 -112L146 84H244L158 -112H72Z" />
<glyph unicode="&#x201c;" glyph-name="quotedblleft" horiz-adv-x="417" d="M135 480L47 676H146L220 480H135ZM282 480L195 676H294L368 480H282Z" />
<glyph unicode="&#x201d;" glyph-name="quotedblright" horiz-adv-x="415" d="M47 480L121 676H220L133 480H47ZM195 480L269 676H368L280 480H195Z" />
<glyph unicode="&#x201e;" glyph-name="quotedblbase" horiz-adv-x="460" d="M72 -112L146 84H244L158 -112H72ZM219 -112L293 84H393L305 -112H219Z" />
<glyph unicode="&#x2022;" glyph-name="bullet" horiz-adv-x="450" d="M187 196T156 214T107 263T88 331Q88 368 106 399T156 448T224 466Q260 466 291 448T340 399T359 331Q359 294 341 263T291 214T224 196Q187 196 156 214Z" />
<glyph unicode="&#x2039;" glyph-name="guilsinglleft" horiz-adv-x="363" d="M200 64L31 255L200 445H317L138 255L317 64H200Z" />
<glyph unicode="&#x203a;" glyph-name="guilsinglright" horiz-adv-x="389" d="M59 64L237 255L59 445H175L345 255L175 64H59Z" />
</font>
</defs>
</svg>
